<svg xmlns="http://www.w3.org/2000/svg" width="245" height="105" viewBox="0 0 245 105">
    <g fill="#FFF" fill-rule="evenodd">
        <path d="M64.642 48.941c5.483-2.417 8.81.232 9.437 1.588.507 1.084.275 2.41-.574 3.3-.857.889-2.136 1.131-3.34.623-1.923-.807-2.255-.669-2.992-.179-.216.142-.433.605-.433 1.046 0 .722 1.048 2.108 2.058 3.441 1.64 2.175 3.675 4.876 3.738 7.612.007.048.09.915-.038 1.849l-.007.018c-.264 1.596-1.602 2.863-1.64 2.893-3.067 3.142-7.923 3.06-8.866 3.011-2.337-.12-5.147-1.143-6.336-3.538a2.361 2.361 0 0 1-.26-1.114c.07-2.006 1.27-2.993 2.272-3.235 1.003-.24 1.976.108 2.129.168 2.124.687 3.6 1.427 4.916.49.294-.21.435-.505.446-.923.027-1.368-1.427-3.069-2.05-3.797-.823-.96-3.327-3.875-2.977-7.592.022-.16.63-3.946 4.517-5.66zM52.304 70.903c.033-.033 1.371-1.296 1.636-2.888l.003-.022c.131-.93.049-1.797.045-1.846-.063-2.739-2.102-5.44-3.742-7.615-1.01-1.337-2.206-2.313-2.057-3.445.064-.434.37-.747.585-.889.742-.493 2.281-.777 4.204.026 1.204.508 2.483.265 3.343-.624.846-.885 1.077-2.212.57-3.303-.625-1.352-5.318-4.005-10.8-1.584-3.884 1.715-4.491 5.496-4.514 5.66-.353 3.714 2.147 6.632 2.974 7.593.623.729 2.076 2.425 2.05 3.8-.01.414-.148.706-.447.919-1.32.941-5.199.194-7.338-.5l.037.014c-.115-.04-1.114-.418-2.147-.168-.998.239-2.199 1.23-2.27 3.229-.014.365.075.743.254 1.113 1.196 2.398 6.407 3.426 8.744 3.542.946.049 5.802.127 8.87-3.012M38.524 30.114c-3.805-.632-4.27 2.227-4.86 4.36-.875 3.191-6.634 40.693-31.537 64.475-2.408 2.305-2.303 3.691-1.912 4.282.932 1.404 3.25 1.259 5.56-.5C18.052 93.373 32.87 70.623 41.617 36.32c.645-2.518.582-5.594-3.093-6.206M242.306 66.176c-2.385.987-5.177 6.554-10.32-3.437-.663-1.293-4.196-6.236-7.543-6.416-3.25-.171-4.573 1.675-8.129 4.892-3.678 3.343-4.23 1.106-5.188-2.444-1.304-4.828-3.704-5.87-5.333-5.743-1.688.138-2.408.135-5.55 3.602-.927 1.024-1.676.393-2.258-.99-.917-2.54-2.042-2.918-3.403-2.84-1.096.06-2.635 1.088-4.498 3.243-1.863 2.153-2.113 2.437-6.891 7.226-4.786 4.787-10.652 3.169-10.652 3.169s6.287-5.175 7.972-7.884c1.73-2.78.377-5.25-1.055-6.303-1.263-.93-4.789-2.369-8.84-.336-7.939 3.975-7.241 13.245-7.241 13.245-4.473 3.255-9.318 1.532-9.318 1.532s3.444-2.854 5.866-6.087c3.98-5.294.843-9.505-1.4-10.248-1.674-.55-5.856-1.925-10.768 2.604-6.6 6.067-4.685 12.774-4.685 12.774-3.168 1.618-5.065 1.917-6.47 1.596-1.95-.445-1.461-2.234-1.461-2.234 1.271-5.16 2.262-9.875 2.262-9.875 1.782-7.72-5.847-8.893-8.9-8.986-1.696-.06-3.141.523-4.07.952 5.326-19.433 13.32-31.64 16.068-35.802.704-1.054-.303-1.285-.727-.893-.422.393-21.613 20.188-27.662 58.736-.31 1.958-.09 5.175 3.843 5.325 3.607.134 4.047-3.39 4.588-7.701.462-3.688 1.047-7.2 1.725-10.544 1.603-2.455 5.516-4.316 7.398-.915.429.765.026 2.305-.112 2.943-.894 4.062-1.774 5.784-1.934 8.224-.194 2.81.824 7.667 7.838 7.667 0 0 4.267.512 11.848-3.385 0 0 3.443 3.004 8.538 3.004 5.102 0 10.767-3.706 10.767-3.706s5.035 3.337 10.581 2.302c6.497-1.215 11.29-8.703 13.324-8.893 0 0-1.695 9.318.865 9.823 2.635.523 4.782-2.657 6.429-4.607 1.886-2.25 3.336-4.26 4.033-4.992 1.379-1.461 2.93-1.498 3.637-.27 1.987 3.469 4.457 9.495 7.461 9.465 4.7-.052 7.38-7.958 11.152-8.025 1.915-.034 3.805 3.007 4.181 3.567.928 1.36 3.246 5.994 9.131 5.912 1.744-.022 5.74-1.652 7.357-6.42.518-1.51-.402-2.648-2.456-1.827m-90.67-9.05c.679-.982 2.785-2.802 3.9-1.684.823.833.417 2.156-.765 3.39-1.424 1.486-4.457 3.567-4.457 3.567-.526-1.532.555-4.166 1.322-5.272m19.742 0c.683-.983 2.788-2.803 3.899-1.685.827.833.413 2.156-.764 3.39-1.424 1.486-4.458 3.567-4.458 3.567-.521-1.532.555-4.166 1.323-5.272"/>
        <path d="M100.165 74.436c3.805.63 4.27-2.227 4.856-4.36.88-3.191 6.634-40.694 31.534-64.472 2.415-2.305 2.31-3.695 1.911-4.285-.931-1.402-2.974-1.035-5.284.725-10.972 8.365-24.33 27.05-33.152 55.672-.037.022-.137.335-.324 1.046-.09.295-.179.597-.264.897-3.962 10.88-13 6.773-13 6.773s3.887-2.634 6.604-6.093c4.115-5.269 1.263-9.887-1.502-10.9-1.9-.698-6.239-2.11-11.486 2.844-7.026 6.647-4.249 13.331-4.249 13.331s2.359 7.185 12.194 8.201c3.228.33 6.392-.586 8.815-2.548.209 1.513 1.103 2.799 3.347 3.169M83.93 56.266c.764-1.099 2.646-3.352 4.96-2.111 1.148.624.459 2.402-.853 3.773-1.591 1.659-4.96 3.976-4.96 3.976-.585-1.704 0-4.413.853-5.638M10.587 77.67c10.74-16.9 13.502-28.803 16.853-41.018.358-1.289-.563-2.339-1.211-.153-4.857 13.022-11.722 25.935-21.024 37.469-1.42 1.759-2.717 4.502-1.044 6.1 1.9 1.813 4.312.928 6.426-2.398"/>
    </g>
</svg>
